<?xml version="1.0" encoding="UTF-8"?><svg id="a" xmlns="http://www.w3.org/2000/svg" viewBox="0 0 40 40"><defs><style>.b{fill:#c773af;}.b,.c{stroke-width:0px;}.c{fill:#d19ac6;}</style></defs><rect class="b" width="40" height="40" rx="4.52" ry="4.52"/><path class="c" d="m20,33.58l-2.15-1.92c-2.49-2.25-4.55-4.18-6.18-5.81s-2.92-3.09-3.89-4.39-1.63-2.49-2.02-3.57-.57-2.2-.57-3.33c0-2.32.78-4.26,2.33-5.81s3.49-2.33,5.81-2.33c1.28,0,2.5.27,3.66.81s2.16,1.31,3,2.29c.84-.99,1.84-1.75,3-2.29s2.38-.81,3.66-.81c2.32,0,4.26.78,5.81,2.33s2.33,3.49,2.33,5.81c0,1.14-.19,2.25-.57,3.33s-1.05,2.28-2.02,3.57-2.26,2.76-3.89,4.39-3.69,3.57-6.18,5.81l-2.15,1.92Zm0-4c2.37-2.12,4.32-3.94,5.85-5.46s2.74-2.84,3.63-3.96c.89-1.12,1.51-2.12,1.85-3s.52-1.75.52-2.61c0-1.48-.49-2.71-1.48-3.7s-2.22-1.48-3.7-1.48c-1.16,0-2.23.33-3.22.98s-1.67,1.49-2.04,2.5h-2.81c-.37-1.01-1.05-1.84-2.04-2.5s-2.06-.98-3.22-.98c-1.48,0-2.71.49-3.7,1.48s-1.48,2.22-1.48,3.7c0,.86.17,1.73.52,2.61s.96,1.88,1.85,3c.89,1.12,2.1,2.44,3.63,3.96s3.48,3.34,5.85,5.46Z"/></svg>